<svg xmlns="http://www.w3.org/2000/svg" width="960" height="520" viewBox="0 0 960 520">
<rect width="960" height="520" fill="#0b1320"/>
<text x="28" y="40" font-size="30" font-family="Arial, Helvetica, sans-serif" fill="#f4f7fb">ROI vs Non-ROI Error</text>
<text x="28" y="64" font-size="18" font-family="Arial, Helvetica, sans-serif" fill="#c6d2dd">Canonical scenario. This makes the non-target stability tradeoff visible.</text>
<line x1="80" y1="80" x2="80" y2="440" stroke="#f4f7fb" stroke-width="2"/>
<line x1="80" y1="440" x2="860" y2="440" stroke="#f4f7fb" stroke-width="2"/>
<path d="M80.00,440.00 L125.88,440.00 L171.76,440.00 L217.65,440.00 L263.53,440.00 L309.41,440.00 L355.29,80.00 L401.18,123.20 L447.06,161.22 L492.94,194.67 L538.82,224.11 L584.71,250.02 L630.59,272.81 L676.47,292.88 L722.35,310.53 L768.24,326.07 L814.12,339.74 L860.00,351.77" fill="none" stroke="#ef476f" stroke-width="3.5"/>
<path d="M80.00,440.00 L125.88,440.00 L171.76,440.00 L217.65,440.00 L263.53,440.00 L309.41,440.00 L355.29,400.20 L401.18,404.33 L447.06,407.92 L492.94,411.08 L538.82,413.88 L584.71,416.38 L630.59,418.62 L676.47,420.64 L722.35,422.45 L768.24,424.09 L814.12,425.58 L860.00,426.92" fill="none" stroke="#4cc9f0" stroke-width="3.5"/>
<path d="M80.00,440.00 L125.88,439.55 L171.76,439.17 L217.65,438.90 L263.53,438.78 L309.41,438.58 L355.29,438.61 L401.18,438.73 L447.06,438.84 L492.94,438.94 L538.82,439.03 L584.71,439.11 L630.59,439.19 L676.47,439.26 L722.35,439.32 L768.24,439.38 L814.12,439.43 L860.00,439.48" fill="none" stroke="#ffd166" stroke-width="3.5" stroke-dasharray="10 8"/>
<text x="540" y="110" font-size="16" font-family="Arial, Helvetica, sans-serif" fill="#f4f7fb">Fixed alpha ROI</text>
<line x1="484" y1="104" x2="530" y2="104" stroke="#ef476f" stroke-width="3.5"/>
<text x="540" y="138" font-size="16" font-family="Arial, Helvetica, sans-serif" fill="#f4f7fb">Host-realistic ROI</text>
<line x1="484" y1="132" x2="530" y2="132" stroke="#4cc9f0" stroke-width="3.5"/>
<text x="540" y="166" font-size="16" font-family="Arial, Helvetica, sans-serif" fill="#f4f7fb">Host-realistic non-ROI</text>
<line x1="484" y1="160" x2="530" y2="160" stroke="#ffd166" stroke-width="3.5" stroke-dasharray="10 8"/>
</svg>