<svg xmlns="http://www.w3.org/2000/svg" width="980" height="520" viewBox="0 0 980 520">
<rect width="980" height="520" fill="#0b1320"/>
<text x="18" y="40" font-size="30" font-family="Arial, Helvetica, sans-serif" fill="#f4f7fb">Canonical Ablation Comparison</text>
<text x="18" y="64" font-size="18" font-family="Arial, Helvetica, sans-serif" fill="#c6d2dd">Bar length = cumulative ROI MAE on the canonical scenario. Lower is better.</text>
<text x="18" y="104" font-size="15" font-family="Arial, Helvetica, sans-serif" fill="#f4f7fb">DSFB visibility-assisted</text>
<rect x="210" y="84" width="55.253586" height="28" rx="8" fill="#4cc9f0"/>
<text x="275.2536" y="103" font-size="14" font-family="Arial, Helvetica, sans-serif" fill="#c6d2dd">0.32040</text><text x="18" y="150" font-size="15" font-family="Arial, Helvetica, sans-serif" fill="#f4f7fb">DSFB host-realistic</text>
<rect x="210" y="130" width="55.019714" height="28" rx="8" fill="#4cc9f0"/>
<text x="275.0197" y="149" font-size="14" font-family="Arial, Helvetica, sans-serif" fill="#c6d2dd">0.31904</text><text x="18" y="196" font-size="15" font-family="Arial, Helvetica, sans-serif" fill="#f4f7fb">DSFB without visibility cue</text>
<rect x="210" y="176" width="55.253586" height="28" rx="8" fill="#4cc9f0"/>
<text x="275.2536" y="195" font-size="14" font-family="Arial, Helvetica, sans-serif" fill="#c6d2dd">0.32040</text><text x="18" y="242" font-size="15" font-family="Arial, Helvetica, sans-serif" fill="#f4f7fb">DSFB without thin proxy</text>
<rect x="210" y="222" width="85.88884" height="28" rx="8" fill="#4cc9f0"/>
<text x="305.88885" y="241" font-size="14" font-family="Arial, Helvetica, sans-serif" fill="#c6d2dd">0.49804</text><text x="18" y="288" font-size="15" font-family="Arial, Helvetica, sans-serif" fill="#f4f7fb">DSFB without motion disagreement</text>
<rect x="210" y="268" width="55.019714" height="28" rx="8" fill="#4cc9f0"/>
<text x="275.0197" y="287" font-size="14" font-family="Arial, Helvetica, sans-serif" fill="#c6d2dd">0.31904</text><text x="18" y="334" font-size="15" font-family="Arial, Helvetica, sans-serif" fill="#f4f7fb">DSFB without grammar</text>
<rect x="210" y="314" width="117.25823" height="28" rx="8" fill="#4cc9f0"/>
<text x="337.25824" y="333" font-size="14" font-family="Arial, Helvetica, sans-serif" fill="#c6d2dd">0.67995</text><text x="18" y="380" font-size="15" font-family="Arial, Helvetica, sans-serif" fill="#f4f7fb">DSFB residual-only</text>
<rect x="210" y="360" width="210.32639" height="28" rx="8" fill="#4cc9f0"/>
<text x="430.3264" y="379" font-size="14" font-family="Arial, Helvetica, sans-serif" fill="#c6d2dd">1.21962</text><text x="18" y="426" font-size="15" font-family="Arial, Helvetica, sans-serif" fill="#f4f7fb">DSFB trust without alpha modulation</text>
<rect x="210" y="406" width="620" height="28" rx="8" fill="#4cc9f0"/>
<text x="840" y="425" font-size="14" font-family="Arial, Helvetica, sans-serif" fill="#c6d2dd">3.59520</text>
</svg>