<svg xmlns="http://www.w3.org/2000/svg" width="960" height="540" viewBox="0 0 960 540">
<rect width="960" height="540" fill="#0b1320"/>
<text x="36" y="40" font-size="30" font-family="Arial, Helvetica, sans-serif" fill="#f4f7fb">Figure 4. Trust and Error Through Failure Onset</text>
<text x="36" y="64" font-size="18" font-family="Arial, Helvetica, sans-serif" fill="#c6d2dd">ROI error uses the revealed thin-geometry mask; trust uses the DSFB trust field on that same mask.</text>
<line x1="88" y1="78" x2="820" y2="78" stroke="#324253" stroke-width="1"/><text x="28" y="83" font-size="15" font-family="Arial, Helvetica, sans-serif" fill="#c6d2dd">0.391</text><text x="842" y="83" font-size="15" font-family="Arial, Helvetica, sans-serif" fill="#c6d2dd">1.00</text><line x1="88" y1="154.4" x2="820" y2="154.4" stroke="#324253" stroke-width="1"/><text x="28" y="159.4" font-size="15" font-family="Arial, Helvetica, sans-serif" fill="#c6d2dd">0.313</text><text x="842" y="159.4" font-size="15" font-family="Arial, Helvetica, sans-serif" fill="#c6d2dd">0.80</text><line x1="88" y1="230.8" x2="820" y2="230.8" stroke="#324253" stroke-width="1"/><text x="28" y="235.8" font-size="15" font-family="Arial, Helvetica, sans-serif" fill="#c6d2dd">0.235</text><text x="842" y="235.8" font-size="15" font-family="Arial, Helvetica, sans-serif" fill="#c6d2dd">0.60</text><line x1="88" y1="307.2" x2="820" y2="307.2" stroke="#324253" stroke-width="1"/><text x="28" y="312.2" font-size="15" font-family="Arial, Helvetica, sans-serif" fill="#c6d2dd">0.157</text><text x="842" y="312.2" font-size="15" font-family="Arial, Helvetica, sans-serif" fill="#c6d2dd">0.40</text><line x1="88" y1="383.6" x2="820" y2="383.6" stroke="#324253" stroke-width="1"/><text x="28" y="388.6" font-size="15" font-family="Arial, Helvetica, sans-serif" fill="#c6d2dd">0.078</text><text x="842" y="388.6" font-size="15" font-family="Arial, Helvetica, sans-serif" fill="#c6d2dd">0.20</text><line x1="88" y1="460" x2="820" y2="460" stroke="#324253" stroke-width="1"/><text x="28" y="465" font-size="15" font-family="Arial, Helvetica, sans-serif" fill="#c6d2dd">0.000</text><text x="842" y="465" font-size="15" font-family="Arial, Helvetica, sans-serif" fill="#c6d2dd">0.00</text>
<line x1="88" y1="78" x2="88" y2="460" stroke="#1d2833" stroke-width="1"/><text x="82" y="486" font-size="15" font-family="Arial, Helvetica, sans-serif" fill="#c6d2dd">0</text><line x1="131.05882" y1="78" x2="131.05882" y2="460" stroke="#1d2833" stroke-width="1"/><text x="125.05882" y="486" font-size="15" font-family="Arial, Helvetica, sans-serif" fill="#c6d2dd">1</text><line x1="174.11765" y1="78" x2="174.11765" y2="460" stroke="#1d2833" stroke-width="1"/><text x="168.11765" y="486" font-size="15" font-family="Arial, Helvetica, sans-serif" fill="#c6d2dd">2</text><line x1="217.17647" y1="78" x2="217.17647" y2="460" stroke="#1d2833" stroke-width="1"/><text x="211.17647" y="486" font-size="15" font-family="Arial, Helvetica, sans-serif" fill="#c6d2dd">3</text><line x1="260.2353" y1="78" x2="260.2353" y2="460" stroke="#1d2833" stroke-width="1"/><text x="254.23529" y="486" font-size="15" font-family="Arial, Helvetica, sans-serif" fill="#c6d2dd">4</text><line x1="303.29413" y1="78" x2="303.29413" y2="460" stroke="#1d2833" stroke-width="1"/><text x="297.29413" y="486" font-size="15" font-family="Arial, Helvetica, sans-serif" fill="#c6d2dd">5</text><line x1="346.35294" y1="78" x2="346.35294" y2="460" stroke="#1d2833" stroke-width="1"/><text x="340.35294" y="486" font-size="15" font-family="Arial, Helvetica, sans-serif" fill="#c6d2dd">6</text><line x1="389.41174" y1="78" x2="389.41174" y2="460" stroke="#1d2833" stroke-width="1"/><text x="383.41174" y="486" font-size="15" font-family="Arial, Helvetica, sans-serif" fill="#c6d2dd">7</text><line x1="432.47058" y1="78" x2="432.47058" y2="460" stroke="#1d2833" stroke-width="1"/><text x="426.47058" y="486" font-size="15" font-family="Arial, Helvetica, sans-serif" fill="#c6d2dd">8</text><line x1="475.52942" y1="78" x2="475.52942" y2="460" stroke="#1d2833" stroke-width="1"/><text x="469.52942" y="486" font-size="15" font-family="Arial, Helvetica, sans-serif" fill="#c6d2dd">9</text><line x1="518.58826" y1="78" x2="518.58826" y2="460" stroke="#1d2833" stroke-width="1"/><text x="512.58826" y="486" font-size="15" font-family="Arial, Helvetica, sans-serif" fill="#c6d2dd">10</text><line x1="561.64703" y1="78" x2="561.64703" y2="460" stroke="#1d2833" stroke-width="1"/><text x="555.64703" y="486" font-size="15" font-family="Arial, Helvetica, sans-serif" fill="#c6d2dd">11</text><line x1="604.7059" y1="78" x2="604.7059" y2="460" stroke="#1d2833" stroke-width="1"/><text x="598.7059" y="486" font-size="15" font-family="Arial, Helvetica, sans-serif" fill="#c6d2dd">12</text><line x1="647.7647" y1="78" x2="647.7647" y2="460" stroke="#1d2833" stroke-width="1"/><text x="641.7647" y="486" font-size="15" font-family="Arial, Helvetica, sans-serif" fill="#c6d2dd">13</text><line x1="690.8235" y1="78" x2="690.8235" y2="460" stroke="#1d2833" stroke-width="1"/><text x="684.8235" y="486" font-size="15" font-family="Arial, Helvetica, sans-serif" fill="#c6d2dd">14</text><line x1="733.8823" y1="78" x2="733.8823" y2="460" stroke="#1d2833" stroke-width="1"/><text x="727.8823" y="486" font-size="15" font-family="Arial, Helvetica, sans-serif" fill="#c6d2dd">15</text><line x1="776.94116" y1="78" x2="776.94116" y2="460" stroke="#1d2833" stroke-width="1"/><text x="770.94116" y="486" font-size="15" font-family="Arial, Helvetica, sans-serif" fill="#c6d2dd">16</text><line x1="820" y1="78" x2="820" y2="460" stroke="#1d2833" stroke-width="1"/><text x="814" y="486" font-size="15" font-family="Arial, Helvetica, sans-serif" fill="#c6d2dd">17</text>
<line x1="88" y1="78" x2="88" y2="460" stroke="#f4f7fb" stroke-width="2"/>
<line x1="88" y1="460" x2="820" y2="460" stroke="#f4f7fb" stroke-width="2"/>
<line x1="820" y1="78" x2="820" y2="460" stroke="#f4f7fb" stroke-width="2"/>
<line x1="88" y1="394.88635" x2="820" y2="394.88635" stroke="#ffd166" stroke-width="2" stroke-dasharray="8 6"/>
<path d="M88.00,460.00 L131.06,460.00 L174.12,460.00 L217.18,460.00 L260.24,460.00 L303.29,460.00 L346.35,78.00 L389.41,123.84 L432.47,164.18 L475.53,199.68 L518.59,230.92 L561.65,258.41 L604.71,282.60 L647.76,303.89 L690.82,322.62 L733.88,339.11 L776.94,353.61 L820.00,366.38" fill="none" stroke="#ef476f" stroke-width="3.5"/>
<path d="M88.00,460.00 L131.06,460.00 L174.12,460.00 L217.18,460.00 L260.24,460.00 L303.29,460.00 L346.35,396.80 L389.41,415.48 L432.47,428.64 L475.53,437.91 L518.59,444.44 L561.65,449.04 L604.71,452.28 L647.76,454.56 L690.82,456.17 L733.88,457.30 L776.94,458.10 L820.00,458.66" fill="none" stroke="#4cc9f0" stroke-width="3.5"/>
<path d="M88.00,78.00 L131.06,81.74 L174.12,81.74 L217.18,81.74 L260.24,81.74 L303.29,83.62 L346.35,414.16 L389.41,171.59 L432.47,171.59 L475.53,171.59 L518.59,171.59 L561.65,171.59 L604.71,171.59 L647.76,171.59 L690.82,171.59 L733.88,171.59 L776.94,171.59 L820.00,171.59" fill="none" stroke="#8bd450" stroke-width="3.5" stroke-dasharray="12 8"/>
<line x1="346.35294" y1="78" x2="346.35294" y2="460" stroke="#f4f7fb" stroke-width="2" stroke-dasharray="9 7"/>
<line x1="346.35294" y1="78" x2="346.35294" y2="460" stroke="#53d1c8" stroke-width="2" stroke-dasharray="6 6"/>
<text x="356.35294" y="104" font-size="16" font-family="Arial, Helvetica, sans-serif" fill="#f4f7fb">reveal onset</text>
<text x="356.35294" y="126" font-size="16" font-family="Arial, Helvetica, sans-serif" fill="#53d1c8">trust minimum</text>
<text x="98" y="520" font-size="16" font-family="Arial, Helvetica, sans-serif" fill="#c6d2dd">frame index</text>
<text x="18" y="86" font-size="16" font-family="Arial, Helvetica, sans-serif" fill="#c6d2dd">error</text>
<text x="834" y="86" font-size="16" font-family="Arial, Helvetica, sans-serif" fill="#c6d2dd">trust</text>
<line x1="560" y1="88" x2="606" y2="88" stroke="#ef476f" stroke-width="3.5"/>
<text x="614" y="93" font-size="16" font-family="Arial, Helvetica, sans-serif" fill="#f4f7fb">baseline ROI error</text>
<line x1="560" y1="116" x2="606" y2="116" stroke="#4cc9f0" stroke-width="3.5"/>
<text x="614" y="121" font-size="16" font-family="Arial, Helvetica, sans-serif" fill="#f4f7fb">DSFB ROI error</text>
<line x1="560" y1="144" x2="606" y2="144" stroke="#8bd450" stroke-width="3.5" stroke-dasharray="12 8"/>
<text x="614" y="149" font-size="16" font-family="Arial, Helvetica, sans-serif" fill="#f4f7fb">DSFB ROI trust</text>
<line x1="560" y1="172" x2="606" y2="172" stroke="#ffd166" stroke-width="2" stroke-dasharray="8 6"/>
<text x="614" y="177" font-size="16" font-family="Arial, Helvetica, sans-serif" fill="#f4f7fb">ghost-persistence threshold</text>
<text x="560" y="272" font-size="16" font-family="Arial, Helvetica, sans-serif" fill="#f4f7fb">Summary</text>
<text x="560" y="298" font-size="16" font-family="Arial, Helvetica, sans-serif" fill="#c6d2dd">reveal frame: 6</text>
<text x="560" y="322" font-size="16" font-family="Arial, Helvetica, sans-serif" fill="#c6d2dd">trust minimum frame: 6</text>
<text x="560" y="346" font-size="16" font-family="Arial, Helvetica, sans-serif" fill="#c6d2dd">peak baseline error frame: 6</text>
<text x="560" y="370" font-size="16" font-family="Arial, Helvetica, sans-serif" fill="#c6d2dd">peak DSFB error frame: 6</text>
<text x="560" y="198" font-size="16" font-family="Arial, Helvetica, sans-serif" fill="#c6d2dd">The experiment is intended to demonstrate</text>
<text x="560" y="220" font-size="16" font-family="Arial, Helvetica, sans-serif" fill="#c6d2dd">behavioral differences rather than establish</text>
<text x="560" y="242" font-size="16" font-family="Arial, Helvetica, sans-serif" fill="#c6d2dd">optimal performance.</text>
</svg>