<svg xmlns="http://www.w3.org/2000/svg" width="1080" height="240" viewBox="0 0 1080 240">
<defs>
  <marker id="arrow" markerWidth="12" markerHeight="12" refX="10" refY="6" orient="auto">
    <path d="M0,0 L12,6 L0,12 z" fill="#f4f7fb"/>
  </marker>
</defs>
<rect width="1080" height="240" fill="#0b1320"/>
<text x="40" y="42" font-size="32" font-family="Arial, Helvetica, sans-serif" fill="#f4f7fb">DSFB Supervisory Flow for Temporal Accumulation</text>
<text x="40" y="68" font-size="18" font-family="Arial, Helvetica, sans-serif" fill="#b9c6d3">Inputs → Residuals → Proxies → Grammar → Trust → Intervention</text>
<rect x="40" y="86" rx="18" ry="18" width="134" height="72" fill="#11324d" stroke="#f4f7fb" stroke-width="2"/><text x="107" y="130" text-anchor="middle" font-size="26" font-family="Arial, Helvetica, sans-serif" fill="#f8fbff">Inputs</text><line x1="174" y1="122" x2="210" y2="122" stroke="#f4f7fb" stroke-width="4" marker-end="url(#arrow)"/><rect x="210" y="86" rx="18" ry="18" width="134" height="72" fill="#204a68" stroke="#f4f7fb" stroke-width="2"/><text x="277" y="130" text-anchor="middle" font-size="26" font-family="Arial, Helvetica, sans-serif" fill="#f8fbff">Residuals</text><line x1="344" y1="122" x2="380" y2="122" stroke="#f4f7fb" stroke-width="4" marker-end="url(#arrow)"/><rect x="380" y="86" rx="18" ry="18" width="134" height="72" fill="#2f5d7c" stroke="#f4f7fb" stroke-width="2"/><text x="447" y="130" text-anchor="middle" font-size="26" font-family="Arial, Helvetica, sans-serif" fill="#f8fbff">Proxies</text><line x1="514" y1="122" x2="550" y2="122" stroke="#f4f7fb" stroke-width="4" marker-end="url(#arrow)"/><rect x="550" y="86" rx="18" ry="18" width="134" height="72" fill="#457b9d" stroke="#f4f7fb" stroke-width="2"/><text x="617" y="130" text-anchor="middle" font-size="26" font-family="Arial, Helvetica, sans-serif" fill="#f8fbff">Grammar</text><line x1="684" y1="122" x2="720" y2="122" stroke="#f4f7fb" stroke-width="4" marker-end="url(#arrow)"/><rect x="720" y="86" rx="18" ry="18" width="134" height="72" fill="#4d9078" stroke="#f4f7fb" stroke-width="2"/><text x="787" y="130" text-anchor="middle" font-size="26" font-family="Arial, Helvetica, sans-serif" fill="#f8fbff">Trust</text><line x1="854" y1="122" x2="890" y2="122" stroke="#f4f7fb" stroke-width="4" marker-end="url(#arrow)"/><rect x="890" y="86" rx="18" ry="18" width="134" height="72" fill="#a44a3f" stroke="#f4f7fb" stroke-width="2"/><text x="957" y="130" text-anchor="middle" font-size="26" font-family="Arial, Helvetica, sans-serif" fill="#f8fbff">Intervention</text>
</svg>