<svg xmlns="http://www.w3.org/2000/svg" width="900" height="460" viewBox="0 0 900 460">
<rect width="900" height="460" fill="#0b1320"/>
<text x="36" y="42" font-size="28" font-family="Arial, Helvetica, sans-serif" fill="#f4f7fb">Trust Histogram</text>
<text x="36" y="68" font-size="16" font-family="Arial, Helvetica, sans-serif" fill="#c6d2dd">Per-pixel DSFB trust distribution for the canonical imported capture.</text>
<line x1="70" y1="96" x2="70" y2="368" stroke="#f4f7fb" stroke-width="2"/>
<line x1="70" y1="368" x2="760" y2="368" stroke="#f4f7fb" stroke-width="2"/>
<rect x="86.0" y="326.0" width="42" height="42.0" fill="#4cc9f0"/>
<text x="86.0" y="392" font-size="13" font-family="Arial, Helvetica, sans-serif" fill="#c6d2dd">0.0</text>
<rect x="148.0" y="341.5" width="42" height="26.5" fill="#4cc9f0"/>
<text x="148.0" y="392" font-size="13" font-family="Arial, Helvetica, sans-serif" fill="#c6d2dd">0.1</text>
<rect x="210.0" y="367.4" width="42" height="0.6" fill="#4cc9f0"/>
<text x="210.0" y="392" font-size="13" font-family="Arial, Helvetica, sans-serif" fill="#c6d2dd">0.2</text>
<rect x="272.0" y="364.8" width="42" height="3.2" fill="#4cc9f0"/>
<text x="272.0" y="392" font-size="13" font-family="Arial, Helvetica, sans-serif" fill="#c6d2dd">0.3</text>
<rect x="334.0" y="365.0" width="42" height="3.0" fill="#4cc9f0"/>
<text x="334.0" y="392" font-size="13" font-family="Arial, Helvetica, sans-serif" fill="#c6d2dd">0.4</text>
<rect x="396.0" y="359.5" width="42" height="8.5" fill="#4cc9f0"/>
<text x="396.0" y="392" font-size="13" font-family="Arial, Helvetica, sans-serif" fill="#c6d2dd">0.5</text>
<rect x="458.0" y="362.1" width="42" height="5.9" fill="#4cc9f0"/>
<text x="458.0" y="392" font-size="13" font-family="Arial, Helvetica, sans-serif" fill="#c6d2dd">0.6</text>
<rect x="520.0" y="340.5" width="42" height="27.5" fill="#4cc9f0"/>
<text x="520.0" y="392" font-size="13" font-family="Arial, Helvetica, sans-serif" fill="#c6d2dd">0.7</text>
<rect x="582.0" y="366.4" width="42" height="1.6" fill="#4cc9f0"/>
<text x="582.0" y="392" font-size="13" font-family="Arial, Helvetica, sans-serif" fill="#c6d2dd">0.8</text>
<rect x="644.0" y="108.0" width="42" height="260.0" fill="#4cc9f0"/>
<text x="644.0" y="392" font-size="13" font-family="Arial, Helvetica, sans-serif" fill="#c6d2dd">0.9</text>

<text x="36" y="106" font-size="14" font-family="Arial, Helvetica, sans-serif" fill="#c6d2dd">count</text>
<text x="730" y="420" font-size="14" font-family="Arial, Helvetica, sans-serif" fill="#c6d2dd">trust</text>
</svg>