<svg xmlns="http://www.w3.org/2000/svg" width="960" height="520" viewBox="0 0 960 520">
<rect width="960" height="520" fill="#0b1320"/>
<text x="28" y="40" font-size="30" font-family="Arial, Helvetica, sans-serif" fill="#f4f7fb">ROI vs Non-ROI Error</text>
<text x="28" y="64" font-size="18" font-family="Arial, Helvetica, sans-serif" fill="#c6d2dd">Canonical scenario. This makes the non-target stability tradeoff visible.</text>
<line x1="80" y1="80" x2="80" y2="440" stroke="#f4f7fb" stroke-width="2"/>
<line x1="80" y1="440" x2="860" y2="440" stroke="#f4f7fb" stroke-width="2"/>
<path d="M80.00,440.00 L125.88,440.00 L171.76,440.00 L217.65,440.00 L263.53,440.00 L309.41,440.00 L355.29,80.00 L401.18,123.20 L447.06,161.22 L492.94,194.67 L538.82,224.11 L584.71,250.02 L630.59,272.81 L676.47,292.88 L722.35,310.53 L768.24,326.07 L814.12,339.74 L860.00,351.77" fill="none" stroke="#ef476f" stroke-width="3.5"/>
<path d="M80.00,440.00 L125.88,440.00 L171.76,440.00 L217.65,440.00 L263.53,440.00 L309.41,440.00 L355.29,380.44 L401.18,401.97 L447.06,408.36 L492.94,413.44 L538.82,417.58 L584.71,421.01 L630.59,423.89 L676.47,426.32 L722.35,428.38 L768.24,430.13 L814.12,431.61 L860.00,432.87" fill="none" stroke="#4cc9f0" stroke-width="3.5"/>
<path d="M80.00,440.00 L125.88,438.74 L171.76,437.78 L217.65,437.18 L263.53,437.01 L309.41,436.95 L355.29,437.17 L401.18,437.48 L447.06,437.74 L492.94,437.97 L538.82,438.17 L584.71,438.34 L630.59,438.50 L676.47,438.63 L722.35,438.76 L768.24,438.87 L814.12,438.97 L860.00,439.06" fill="none" stroke="#ffd166" stroke-width="3.5" stroke-dasharray="10 8"/>
<text x="540" y="110" font-size="16" font-family="Arial, Helvetica, sans-serif" fill="#f4f7fb">Fixed alpha ROI</text>
<line x1="484" y1="104" x2="530" y2="104" stroke="#ef476f" stroke-width="3.5"/>
<text x="540" y="138" font-size="16" font-family="Arial, Helvetica, sans-serif" fill="#f4f7fb">Host-realistic ROI</text>
<line x1="484" y1="132" x2="530" y2="132" stroke="#4cc9f0" stroke-width="3.5"/>
<text x="540" y="166" font-size="16" font-family="Arial, Helvetica, sans-serif" fill="#f4f7fb">Host-realistic non-ROI</text>
<line x1="484" y1="160" x2="530" y2="160" stroke="#ffd166" stroke-width="3.5" stroke-dasharray="10 8"/>
</svg>