<svg xmlns="http://www.w3.org/2000/svg" width="1110" height="240" viewBox="0 0 1110 240">
<defs>
  <marker id="arrow" markerWidth="12" markerHeight="12" refX="10" refY="6" orient="auto">
    <path d="M0,0 L12,6 L0,12 z" fill="#f4f7fb"/>
  </marker>
</defs>
<rect width="1110" height="240" fill="#0b1320"/>
<text x="40" y="42" font-size="32" font-family="Arial, Helvetica, sans-serif" fill="#f4f7fb">DSFB Supervisory Flow and Integration Surface</text>
<text x="40" y="68" font-size="18" font-family="Arial, Helvetica, sans-serif" fill="#b9c6d3">Inputs → Residuals → Proxies → Grammar → Trust → Intervention / Modulation</text>
<rect x="40" y="86" rx="18" ry="18" width="134" height="72" fill="#11324d" stroke="#f4f7fb" stroke-width="2"/><text x="107" y="130" text-anchor="middle" font-size="24" font-family="Arial, Helvetica, sans-serif" fill="#f8fbff">Host Buffers</text><line x1="174" y1="122" x2="212" y2="122" stroke="#f4f7fb" stroke-width="4" marker-end="url(#arrow)"/><rect x="212" y="86" rx="18" ry="18" width="134" height="72" fill="#204a68" stroke="#f4f7fb" stroke-width="2"/><text x="279" y="130" text-anchor="middle" font-size="24" font-family="Arial, Helvetica, sans-serif" fill="#f8fbff">Residuals</text><line x1="346" y1="122" x2="384" y2="122" stroke="#f4f7fb" stroke-width="4" marker-end="url(#arrow)"/><rect x="384" y="86" rx="18" ry="18" width="134" height="72" fill="#2f5d7c" stroke="#f4f7fb" stroke-width="2"/><text x="451" y="130" text-anchor="middle" font-size="24" font-family="Arial, Helvetica, sans-serif" fill="#f8fbff">Proxies</text><line x1="518" y1="122" x2="556" y2="122" stroke="#f4f7fb" stroke-width="4" marker-end="url(#arrow)"/><rect x="556" y="86" rx="18" ry="18" width="134" height="72" fill="#457b9d" stroke="#f4f7fb" stroke-width="2"/><text x="623" y="130" text-anchor="middle" font-size="24" font-family="Arial, Helvetica, sans-serif" fill="#f8fbff">State / Grammar</text><line x1="690" y1="122" x2="728" y2="122" stroke="#f4f7fb" stroke-width="4" marker-end="url(#arrow)"/><rect x="728" y="86" rx="18" ry="18" width="134" height="72" fill="#4d9078" stroke="#f4f7fb" stroke-width="2"/><text x="795" y="130" text-anchor="middle" font-size="24" font-family="Arial, Helvetica, sans-serif" fill="#f8fbff">Trust</text><line x1="862" y1="122" x2="900" y2="122" stroke="#f4f7fb" stroke-width="4" marker-end="url(#arrow)"/><rect x="900" y="86" rx="18" ry="18" width="134" height="72" fill="#a44a3f" stroke="#f4f7fb" stroke-width="2"/><text x="967" y="130" text-anchor="middle" font-size="24" font-family="Arial, Helvetica, sans-serif" fill="#f8fbff">Alpha / Budget</text>
</svg>